<svg width="51" height="27" viewBox="0 0 51 27" fill="none" xmlns="http://www.w3.org/2000/svg">
<g clip-path="url(#clip0_5107_188)">
<path fill-rule="evenodd" clip-rule="evenodd" d="M1.59521 15.1328H3.44859L6.33722 11.4831L6.22827 15.1328H8.08139L12.1695 10.0113H10.4798L7.75456 13.455H7.70008L7.8635 10.0113H6.01012L3.23044 13.455H3.17597L3.44859 10.0113H1.70442L1.59521 15.1328ZM14.5134 11.4241H12.8781L11.3521 15.1328H12.9873L14.5134 11.4241ZM14.7857 10.7471L15.1128 9.9231H13.4776L13.1505 10.7471H14.7857ZM16.2573 15.1328L18.3285 10.0113H16.6936L14.6223 15.1328H16.2573ZM19.5277 15.1328L21.599 10.0113H19.9638L17.8925 15.1328H19.5277ZM24.2153 11.4241H22.58L21.0538 15.1328H22.689L24.2153 11.4241ZM24.4879 10.7471L24.8695 9.9231H23.2342L22.8527 10.7471H24.4879ZM29.6112 15.1328C29.557 14.9856 29.6112 14.7797 29.6659 14.6029L30.3741 12.8665C30.8651 11.748 30.2109 11.3948 28.3578 11.3654C27.3765 11.3654 26.1231 11.6597 25.5231 12.0424L26.3955 12.4838C26.8313 12.2483 27.322 12.0129 28.0852 12.0129C28.6846 12.0129 29.0117 12.1895 28.9028 12.4544L28.7933 12.7782C26.0681 12.9548 24.5966 13.3964 24.2695 14.2203C24.0516 14.7206 24.4876 15.2211 25.7413 15.2211C26.5584 15.2211 27.2673 15.0446 28.0302 14.8091L27.976 15.133L29.6112 15.1328ZM28.2489 14.1614C27.8126 14.3087 27.0497 14.5441 26.5586 14.5441C26.1229 14.5441 25.8505 14.3969 25.9592 14.1322C26.1771 13.6023 27.431 13.4846 28.5754 13.3668L28.2489 14.1614ZM32.4459 15.1328L33.5356 12.4836C34.0266 12.2776 34.6806 12.0717 35.0621 12.0717C35.6616 12.1011 35.825 12.2483 35.7161 12.5426L34.6258 15.1328H36.2613L37.351 12.4836C37.8421 12.2776 38.496 12.0717 38.8776 12.0717C39.477 12.1011 39.6405 12.2483 39.5315 12.5426L38.4413 15.1328H40.0768L41.1665 12.4836C41.5481 11.6006 40.676 11.3653 39.9673 11.3653C38.8229 11.3653 38.0597 11.6008 37.4058 11.895C37.2421 11.5419 36.6429 11.3653 35.934 11.3653C35.0074 11.3653 34.4079 11.5419 33.6445 11.8362L33.8082 11.4241H32.3369L30.8104 15.1328H32.4459ZM47.4892 11.9245C47.0529 11.5419 46.1811 11.3653 45.3093 11.3653C44.1101 11.3653 42.8562 11.7478 42.5836 12.4248C42.0388 13.7201 45.5819 13.5137 45.3093 14.132C45.2003 14.3673 44.764 14.544 44.1643 14.544C43.4562 14.544 43.0746 14.3084 42.802 14.0141L41.5481 14.4556C41.9296 14.9559 42.693 15.2208 43.8375 15.2208C45.2546 15.2208 46.4537 14.8677 46.7806 14.1025C47.3258 12.7485 43.7827 13.0135 44.0554 12.3954C44.1643 12.1599 44.4917 12.0127 45.1456 12.0127C45.6361 12.0127 46.0174 12.2188 46.2358 12.4248L47.4892 11.9245Z" fill="black"/>
<path fill-rule="evenodd" clip-rule="evenodd" d="M47.343 15.0826L47.4849 15.0757C47.4914 15.1067 47.5072 15.1317 47.5321 15.1515C47.557 15.1712 47.5949 15.1871 47.6465 15.1994C47.6981 15.2114 47.7565 15.2175 47.8208 15.2175C47.8787 15.2175 47.9293 15.2128 47.9728 15.2037C48.0118 15.1966 48.046 15.1834 48.0711 15.1658C48.0922 15.1506 48.1036 15.1322 48.1036 15.1132C48.1044 15.0949 48.0933 15.077 48.0722 15.0627C48.0519 15.0481 48.0174 15.0362 47.9702 15.0265C47.9394 15.02 47.8719 15.0102 47.7676 14.9964C47.6634 14.9827 47.5897 14.9701 47.5477 14.9582C47.4985 14.9452 47.4566 14.9255 47.426 14.901C47.3996 14.8781 47.3859 14.8515 47.3866 14.8244C47.3866 14.7935 47.4027 14.7645 47.4354 14.7374C47.4703 14.7096 47.5202 14.6881 47.5783 14.6759C47.6411 14.6622 47.7106 14.6552 47.7871 14.6552C47.8635 14.6544 47.9395 14.662 48.0104 14.6773C48.0748 14.6919 48.1243 14.7135 48.1588 14.7419C48.1933 14.7703 48.212 14.8027 48.2146 14.8387L48.0706 14.8447C48.0626 14.8059 48.0361 14.7764 47.9915 14.7566C47.9464 14.7366 47.8805 14.7268 47.7928 14.7268C47.7015 14.7268 47.6359 14.7357 47.5936 14.7538C47.5745 14.7613 47.5589 14.7711 47.5481 14.7824C47.5372 14.7937 47.5315 14.8062 47.5313 14.819C47.5313 14.8411 47.5461 14.8594 47.5754 14.8734C47.6048 14.888 47.6802 14.9024 47.8024 14.9171C47.9251 14.9321 48.0091 14.9453 48.0548 14.9562C48.1207 14.9729 48.1697 14.994 48.2011 15.0191C48.233 15.0443 48.2483 15.0736 48.2483 15.1064C48.2483 15.1392 48.2312 15.1701 48.1967 15.1988C48.1622 15.2275 48.1121 15.2502 48.0473 15.2663C47.9782 15.2828 47.9033 15.291 47.8278 15.2904C47.7251 15.2904 47.6385 15.2822 47.5695 15.2661C47.5023 15.2512 47.445 15.2256 47.4053 15.1928C47.3656 15.16 47.344 15.1218 47.343 15.0826ZM48.4493 15.2798V14.6653H48.6763L48.9453 15.1005C48.9707 15.141 48.9889 15.1714 49 15.1913C49.0127 15.1691 49.033 15.1359 49.0602 15.0928L49.3328 14.6652H49.5354V15.2797H49.3899V14.7653L49.0597 15.2797H48.9235L48.5946 14.7569V15.2797L48.4493 15.2798Z" fill="#272727"/>
<path fill-rule="evenodd" clip-rule="evenodd" d="M18.9284 16.1041C10.5343 17.9876 3.61212 18.4293 3.50318 17.1342C3.50318 16.781 3.93922 16.3397 4.81131 15.8686H3.55765C1.759 16.8106 0.77797 17.6345 1.05034 18.1645C1.70427 19.7538 11.5699 18.7237 23.343 15.8686H20.0184C19.637 15.9568 19.3097 16.0452 18.9284 16.1041ZM45.0368 7.3328C44.3828 5.77294 35.1165 6.62655 23.7249 9.21665L24.2154 9.36373C31.1921 7.89211 37.188 6.97968 40.349 7.03851C44.0555 7.12675 42.8563 8.56895 37.8964 10.6883H40.24C43.5102 9.30489 45.3094 8.09816 45.0368 7.3328ZM45.9633 8.8928C45.8539 8.65733 45.527 8.48084 45.091 8.36304C44.7642 8.68689 44.2739 9.0106 43.6739 9.39314C43.565 9.74641 43.0744 10.1585 42.1479 10.6883H44.3826C45.6362 9.95245 46.1812 9.33431 45.9633 8.8928Z" fill="#1B1F79"/>
<path fill-rule="evenodd" clip-rule="evenodd" d="M25.8505 10.6294L26.3957 10.7765C32.5548 9.48152 38.06 8.65733 41.1665 8.65733C41.3849 8.4807 41.548 8.33348 41.7117 8.1864C38.0052 8.33362 32.2822 9.18709 25.8505 10.6294ZM26.9949 15.8685C25.0248 16.4308 23.0058 16.9416 20.9448 17.3992C13.4228 19.1064 7.04562 19.7832 5.1925 19.1651C3.66621 19.2535 2.68518 19.1651 2.19441 19.0767C2.08546 19.1944 2.03099 19.3123 1.97651 19.4004C1.486 21.1666 9.77082 20.6367 20.563 18.2821C23.9424 17.5461 27.1036 16.7221 29.9383 15.8686L26.9949 15.8685ZM9.55319 15.8685H8.51768C6.99166 16.4276 5.68327 16.9575 4.64777 17.458C4.86592 17.5168 5.35617 17.6052 5.68327 17.6052C6.50089 17.0752 7.86349 16.4865 9.55319 15.8685Z" fill="#56749F"/>
</g>
<defs>
<clipPath id="clip0_5107_188">
<rect width="51" height="27" fill="white"/>
</clipPath>
</defs>
</svg>
